<svg xmlns="http://www.w3.org/2000/svg" viewBox="0 0 502 245.54"><defs><style>.cls-1{fill:#4fc3cf;}.cls-2{fill:#ffffff;}.cls-3{fill:none;stroke:#46c6f1;stroke-width:10px;}.cls-3,.cls-4{stroke-miterlimit:10;}.cls-4{fill:#46c6f1;stroke:#46c6f1;stroke-width:5px;}.cls-5{fill:#ffffff;}.cls-6{fill:#ffffff;}</style></defs><title>Asset 1</title><g id="Layer_2" data-name="Layer 2"><g id="Layer_1-2" data-name="Layer 1"><g id="_Group_" data-name="&lt;Group&gt;"><path id="_Path_" data-name="&lt;Path&gt;" class="cls-1" d="M116.26,59.73a6.92,6.92,0,0,0-.84-.72A7.4,7.4,0,0,1,116.26,59.73Z"/><path id="_Path_2" data-name="&lt;Path&gt;" class="cls-1" d="M106.17,59.7a6.94,6.94,0,0,0-.68.79A7.49,7.49,0,0,1,106.17,59.7Z"/></g><path class="cls-2" d="M327.5,57.18a1.42,1.42,0,0,1,.5.09,1.37,1.37,0,0,1,.48.33l2.81,3a11.68,11.68,0,0,1-4.63,3.64,16.21,16.21,0,0,1-6.58,1.23,15.68,15.68,0,0,1-6.25-1.19A13.51,13.51,0,0,1,309.15,61a14.42,14.42,0,0,1-3-5,18.3,18.3,0,0,1-1-6.23,16.41,16.41,0,0,1,1.18-6.29,14.67,14.67,0,0,1,3.29-4.95,14.82,14.82,0,0,1,5.05-3.23,17.6,17.6,0,0,1,6.49-1.16,16.56,16.56,0,0,1,3.24.3,15.88,15.88,0,0,1,2.85.84,13.39,13.39,0,0,1,2.44,1.28,11.76,11.76,0,0,1,2,1.65l-2.39,3.21a3,3,0,0,1-.55.54,1.42,1.42,0,0,1-.88.24,1.57,1.57,0,0,1-.71-.17,7.79,7.79,0,0,1-.71-.41l-.83-.53a6.39,6.39,0,0,0-1.07-.52,8.88,8.88,0,0,0-1.45-.41,9.87,9.87,0,0,0-1.94-.17,8.89,8.89,0,0,0-3.53.68,7.74,7.74,0,0,0-2.74,2,9.05,9.05,0,0,0-1.78,3.08,12.06,12.06,0,0,0-.64,4.05,12.59,12.59,0,0,0,.64,4.18A9.17,9.17,0,0,0,314.82,57a7.4,7.4,0,0,0,2.57,1.9,7.69,7.69,0,0,0,3.15.65,15.08,15.08,0,0,0,1.76-.09,7.26,7.26,0,0,0,1.48-.33,6.84,6.84,0,0,0,1.3-.6,8.64,8.64,0,0,0,1.25-.91,2.48,2.48,0,0,1,.55-.35A1.43,1.43,0,0,1,327.5,57.18Z"/><path class="cls-2" d="M341.63,53.77V65.09h-7.1V34.5h10a20.44,20.44,0,0,1,5.66.68,10.64,10.64,0,0,1,3.82,1.9A7.2,7.2,0,0,1,356.12,40a9.54,9.54,0,0,1,.67,3.61,9.69,9.69,0,0,1-.4,2.81,8.51,8.51,0,0,1-1.19,2.45,9.19,9.19,0,0,1-1.93,2,10.26,10.26,0,0,1-2.64,1.45,6.71,6.71,0,0,1,1.33.88,5.26,5.26,0,0,1,1.08,1.28l6.51,10.65h-6.43a2.73,2.73,0,0,1-2.56-1.34l-5.08-8.88a2.14,2.14,0,0,0-.79-.84,2.64,2.64,0,0,0-1.27-.25Zm0-4.89h2.86a7.3,7.3,0,0,0,2.47-.37,4.45,4.45,0,0,0,1.67-1,3.88,3.88,0,0,0,.95-1.52,5.85,5.85,0,0,0,.29-1.88,3.94,3.94,0,0,0-1.31-3.15,6.11,6.11,0,0,0-4.06-1.13h-2.86Z"/><path class="cls-2" d="M377.71,53.46V65.09h-7.1V53.46l-11.09-19h6.26a2.31,2.31,0,0,1,1.47.43,3.21,3.21,0,0,1,.88,1.1l4.33,8.9,1,2q.44.9.78,1.79a16.61,16.61,0,0,1,.76-1.81l.94-2,4.28-8.9a2.64,2.64,0,0,1,.35-.55A3,3,0,0,1,381,35a2.44,2.44,0,0,1,.65-.36,2.31,2.31,0,0,1,.81-.14h6.3Z"/><path class="cls-2" d="M398,54.87V65.09h-7.1V34.5h10.79a17.81,17.81,0,0,1,5.55.77,10.67,10.67,0,0,1,3.82,2.11,8.23,8.23,0,0,1,2.22,3.17,10.75,10.75,0,0,1,.71,3.95,11.6,11.6,0,0,1-.74,4.2A8.42,8.42,0,0,1,411,52a10.59,10.59,0,0,1-3.83,2.13,17.56,17.56,0,0,1-5.49.77Zm0-5.35h3.7a5.21,5.21,0,0,0,4-1.32,5.26,5.26,0,0,0,1.22-3.7,5.53,5.53,0,0,0-.31-1.91,3.89,3.89,0,0,0-1-1.48,4.3,4.3,0,0,0-1.62-1,7.16,7.16,0,0,0-2.32-.34H398Z"/><path class="cls-2" d="M439.91,34.5v5.63H431.3v25h-7.1v-25h-8.61V34.5Z"/><path class="cls-2" d="M471.79,49.78A16.45,16.45,0,0,1,470.64,56a14.59,14.59,0,0,1-8.23,8.27,18.28,18.28,0,0,1-13,0A14.61,14.61,0,0,1,441.14,56a17.23,17.23,0,0,1,0-12.35,14.68,14.68,0,0,1,3.23-5,14.94,14.94,0,0,1,5-3.3,17.1,17.1,0,0,1,6.51-1.2,16.91,16.91,0,0,1,6.5,1.21,15,15,0,0,1,5,3.31,14.78,14.78,0,0,1,3.22,5A16.39,16.39,0,0,1,471.79,49.78Zm-7.27,0a13.23,13.23,0,0,0-.59-4.08,8.65,8.65,0,0,0-1.69-3.08,7.3,7.3,0,0,0-2.7-1.93,9.28,9.28,0,0,0-3.63-.67,9.42,9.42,0,0,0-3.66.67,7.28,7.28,0,0,0-2.71,1.93,8.66,8.66,0,0,0-1.69,3.08,14.56,14.56,0,0,0,0,8.19A8.65,8.65,0,0,0,449.54,57a7.17,7.17,0,0,0,2.71,1.92,9.55,9.55,0,0,0,3.66.66,9.42,9.42,0,0,0,3.63-.66,7.19,7.19,0,0,0,2.7-1.92,8.64,8.64,0,0,0,1.69-3.08A13.3,13.3,0,0,0,464.52,49.78Z"/><path class="cls-2" d="M264.85,111a12.08,12.08,0,0,0,2.6-.25,12.71,12.71,0,0,0,2.14-.67V105.4h-3a1.47,1.47,0,0,1-1-.36,1.19,1.19,0,0,1-.38-.9v-3.91H276v12.92a16,16,0,0,1-2.45,1.48,15.77,15.77,0,0,1-2.71,1,20.15,20.15,0,0,1-3.07.59,30.38,30.38,0,0,1-3.5.19,16,16,0,0,1-6.22-1.19,14.88,14.88,0,0,1-8.22-8.23,16.12,16.12,0,0,1-1.19-6.23,17,17,0,0,1,1.13-6.29,14.17,14.17,0,0,1,3.24-4.95,14.72,14.72,0,0,1,5.1-3.23,18.45,18.45,0,0,1,6.69-1.16,19.49,19.49,0,0,1,3.59.31,17.64,17.64,0,0,1,3.1.86,14.27,14.27,0,0,1,2.59,1.3,14,14,0,0,1,2.1,1.64l-2.06,3.13a2.29,2.29,0,0,1-.7.69,1.67,1.67,0,0,1-.89.25,2.45,2.45,0,0,1-1.3-.42q-.84-.5-1.59-.87a9.71,9.71,0,0,0-1.52-.6,10,10,0,0,0-1.64-.34,16.11,16.11,0,0,0-1.93-.1,8.82,8.82,0,0,0-3.59.7,7.71,7.71,0,0,0-2.72,2,9,9,0,0,0-1.73,3.08,12.4,12.4,0,0,0-.61,4,12.87,12.87,0,0,0,.67,4.33,9.29,9.29,0,0,0,1.86,3.19,7.88,7.88,0,0,0,2.81,2A9.11,9.11,0,0,0,264.85,111Z"/><path class="cls-2" d="M308.83,116.09h-5.5a2.54,2.54,0,0,1-1.52-.43,2.22,2.22,0,0,1-.83-1.1l-1.81-5.33H287.53l-1.81,5.33a2.43,2.43,0,0,1-2.31,1.53h-5.54l11.84-30.6H297Zm-19.66-11.7h8.36L294.71,96l-.64-1.88q-.37-1.08-.72-2.34-.34,1.28-.69,2.37T292,96.06Z"/><path class="cls-2" d="M327.76,103.76q.39.86.75,1.77.36-.93.76-1.8t.82-1.69l7.85-15.47a2.56,2.56,0,0,1,.43-.62,1.41,1.41,0,0,1,.49-.33,1.71,1.71,0,0,1,.62-.11h6.23v30.58h-6.26V98.49q0-1.28.13-2.77l-8.11,15.73a2.67,2.67,0,0,1-1,1.11,2.82,2.82,0,0,1-1.46.38h-1a2.82,2.82,0,0,1-1.46-.38,2.67,2.67,0,0,1-1-1.11L317.39,95.7q.08.74.13,1.46t0,1.33v17.6H311.3V85.52h6.23a1.71,1.71,0,0,1,.62.11,1.42,1.42,0,0,1,.49.33,2.57,2.57,0,0,1,.43.62l7.88,15.54Q327.37,102.9,327.76,103.76Z"/><path class="cls-2" d="M350.74,116.09V85.5H362a21.4,21.4,0,0,1,5.4.59A10.29,10.29,0,0,1,371,87.74a6.3,6.3,0,0,1,2,2.6,8.8,8.8,0,0,1,.64,3.42,6.72,6.72,0,0,1-.29,2,5.84,5.84,0,0,1-.92,1.8,6.89,6.89,0,0,1-1.62,1.52,10.43,10.43,0,0,1-2.37,1.19,8.43,8.43,0,0,1,4.47,2.38,6.17,6.17,0,0,1,1.45,4.23,8.75,8.75,0,0,1-.76,3.63,8.31,8.31,0,0,1-2.22,2.93,10.49,10.49,0,0,1-3.6,2,15.65,15.65,0,0,1-4.89.7Zm7.1-17.72h3.7a12.15,12.15,0,0,0,2.12-.17,4.4,4.4,0,0,0,1.61-.59,2.7,2.7,0,0,0,1-1.15,4.33,4.33,0,0,0,.35-1.85,5.21,5.21,0,0,0-.27-1.82,2.6,2.6,0,0,0-.84-1.17,3.53,3.53,0,0,0-1.44-.63,9.88,9.88,0,0,0-2.07-.19h-4.16Zm0,4.75v7.62h5a6.26,6.26,0,0,0,2.3-.36,3.63,3.63,0,0,0,1.4-.92,3.1,3.1,0,0,0,.69-1.28,5.64,5.64,0,0,0,.19-1.45,4.84,4.84,0,0,0-.22-1.51,2.5,2.5,0,0,0-.76-1.13,3.7,3.7,0,0,0-1.42-.71,8.26,8.26,0,0,0-2.23-.25Z"/><path class="cls-2" d="M385.39,110.42h11.34v5.67H378.29V85.5h7.1Z"/><path class="cls-2" d="M407.86,116.09h-7.14V85.5h7.14Z"/><path class="cls-2" d="M418,85.54a2,2,0,0,1,.57.16,1.9,1.9,0,0,1,.48.33,5.56,5.56,0,0,1,.52.57L434.15,105q-.08-.88-.13-1.71t0-1.56V85.5h6.26v30.6h-3.7a3.41,3.41,0,0,1-1.39-.25,3,3,0,0,1-1.09-.92L419.64,96.69q.06.8.1,1.56t0,1.44v16.4h-6.26V85.5h3.74A6.06,6.06,0,0,1,418,85.54Z"/><path class="cls-2" d="M459.69,111a12.08,12.08,0,0,0,2.6-.25,12.71,12.71,0,0,0,2.14-.67V105.4h-3a1.47,1.47,0,0,1-1-.36,1.19,1.19,0,0,1-.38-.9v-3.91h10.88v12.92a16,16,0,0,1-2.45,1.48,15.77,15.77,0,0,1-2.71,1,20.15,20.15,0,0,1-3.07.59,30.38,30.38,0,0,1-3.5.19,16,16,0,0,1-6.22-1.19,14.88,14.88,0,0,1-8.22-8.23,16.12,16.12,0,0,1-1.19-6.23,17,17,0,0,1,1.13-6.29,14.17,14.17,0,0,1,3.24-4.95,14.72,14.72,0,0,1,5.1-3.23,18.45,18.45,0,0,1,6.69-1.16,19.49,19.49,0,0,1,3.59.31,17.64,17.64,0,0,1,3.1.86,14.27,14.27,0,0,1,2.59,1.3,14,14,0,0,1,2.1,1.64L469,92.4a2.29,2.29,0,0,1-.7.69,1.67,1.67,0,0,1-.89.25,2.45,2.45,0,0,1-1.3-.42q-.84-.5-1.59-.87a9.71,9.71,0,0,0-1.52-.6,10,10,0,0,0-1.64-.34,16.11,16.11,0,0,0-1.93-.1,8.82,8.82,0,0,0-3.59.7,7.71,7.71,0,0,0-2.72,2,9,9,0,0,0-1.73,3.08,12.4,12.4,0,0,0-.61,4,12.87,12.87,0,0,0,.67,4.33,9.29,9.29,0,0,0,1.86,3.19,7.88,7.88,0,0,0,2.81,2A9.11,9.11,0,0,0,459.69,111Z"/><path class="cls-2" d="M214.2,136.5V142H201.64v7.75H212.1v5.48H201.64v11.91H194.5V136.5Z"/><path class="cls-2" d="M248.09,151.78a16.45,16.45,0,0,1-1.14,6.17,14.59,14.59,0,0,1-8.23,8.27,18.28,18.28,0,0,1-13,0,14.61,14.61,0,0,1-8.26-8.27,17.23,17.23,0,0,1,0-12.35,14.68,14.68,0,0,1,3.23-5,14.94,14.94,0,0,1,5-3.3,17.1,17.1,0,0,1,6.51-1.2,16.91,16.91,0,0,1,6.5,1.21,15,15,0,0,1,5,3.31,14.78,14.78,0,0,1,3.22,5A16.39,16.39,0,0,1,248.09,151.78Zm-7.27,0a13.23,13.23,0,0,0-.59-4.08,8.65,8.65,0,0,0-1.69-3.08,7.3,7.3,0,0,0-2.7-1.93,9.28,9.28,0,0,0-3.63-.67,9.42,9.42,0,0,0-3.66.67,7.28,7.28,0,0,0-2.71,1.93,8.66,8.66,0,0,0-1.69,3.08,14.56,14.56,0,0,0,0,8.19,8.65,8.65,0,0,0,1.69,3.08,7.17,7.17,0,0,0,2.71,1.92,9.55,9.55,0,0,0,3.66.66,9.42,9.42,0,0,0,3.63-.66,7.19,7.19,0,0,0,2.7-1.92,8.64,8.64,0,0,0,1.69-3.08A13.3,13.3,0,0,0,240.83,151.78Z"/><path class="cls-2" d="M264.22,161.49a6.53,6.53,0,0,0,2.55-.47,5.17,5.17,0,0,0,1.9-1.35,6,6,0,0,0,1.19-2.15,9.39,9.39,0,0,0,.41-2.89V136.5h7.1v18.12a14.15,14.15,0,0,1-.91,5.17,11.58,11.58,0,0,1-2.61,4.05,11.8,11.8,0,0,1-4.14,2.65,16.43,16.43,0,0,1-11,0,11.8,11.8,0,0,1-4.14-2.65,11.47,11.47,0,0,1-2.6-4.05,14.3,14.3,0,0,1-.9-5.17V136.5h7.1v18.1a9.4,9.4,0,0,0,.41,2.89,6.09,6.09,0,0,0,1.19,2.16,5.1,5.1,0,0,0,1.9,1.36A6.53,6.53,0,0,0,264.22,161.49Z"/><path class="cls-2" d="M286.5,136.54a2,2,0,0,1,.57.16,1.9,1.9,0,0,1,.48.33,5.56,5.56,0,0,1,.52.57L302.61,156q-.08-.88-.13-1.71t0-1.56V136.5h6.26v30.6H305a3.41,3.41,0,0,1-1.39-.25,3,3,0,0,1-1.09-.92L288.1,147.69q.06.8.1,1.56t0,1.44v16.4H282V136.5h3.74A6.06,6.06,0,0,1,286.5,136.54Z"/><path class="cls-2" d="M341.5,151.78a16,16,0,0,1-1.14,6.12,14.33,14.33,0,0,1-3.22,4.85,14.62,14.62,0,0,1-5,3.19,17.72,17.72,0,0,1-6.5,1.14H313.74V136.5h11.89a17.58,17.58,0,0,1,6.5,1.16,14.83,14.83,0,0,1,5,3.19,14.22,14.22,0,0,1,3.22,4.84A16,16,0,0,1,341.5,151.78Zm-7.27,0a13.34,13.34,0,0,0-.59-4.09,8.75,8.75,0,0,0-1.69-3.1,7.34,7.34,0,0,0-2.7-2,9.17,9.17,0,0,0-3.63-.68h-4.75v19.68h4.75a9.16,9.16,0,0,0,3.63-.68,7.33,7.33,0,0,0,2.7-2,8.74,8.74,0,0,0,1.69-3.1A13.42,13.42,0,0,0,334.24,151.78Z"/><path class="cls-2" d="M372.12,167.09h-5.5a2.54,2.54,0,0,1-1.52-.43,2.22,2.22,0,0,1-.83-1.1l-1.81-5.33H350.83L349,165.56a2.43,2.43,0,0,1-2.31,1.53h-5.54L353,136.5h7.27Zm-19.66-11.7h8.36L358,147l-.64-1.88q-.37-1.08-.72-2.34-.34,1.28-.69,2.37t-.67,1.89Z"/><path class="cls-2" d="M393.46,136.5v5.63h-8.61v25h-7.1v-25h-8.61V136.5Z"/><path class="cls-2" d="M404.17,167.09H397V136.5h7.14Z"/><path class="cls-2" d="M440,151.78a16.45,16.45,0,0,1-1.14,6.17,14.59,14.59,0,0,1-8.23,8.27,18.28,18.28,0,0,1-13,0,14.61,14.61,0,0,1-8.26-8.27,17.23,17.23,0,0,1,0-12.35,14.68,14.68,0,0,1,3.23-5,14.94,14.94,0,0,1,5-3.3,17.1,17.1,0,0,1,6.51-1.2,16.91,16.91,0,0,1,6.5,1.21,15,15,0,0,1,5,3.31,14.78,14.78,0,0,1,3.22,5A16.39,16.39,0,0,1,440,151.78Zm-7.27,0a13.23,13.23,0,0,0-.59-4.08,8.65,8.65,0,0,0-1.69-3.08,7.3,7.3,0,0,0-2.7-1.93,9.28,9.28,0,0,0-3.63-.67,9.42,9.42,0,0,0-3.66.67,7.28,7.28,0,0,0-2.71,1.93,8.66,8.66,0,0,0-1.69,3.08,14.56,14.56,0,0,0,0,8.19,8.65,8.65,0,0,0,1.69,3.08,7.17,7.17,0,0,0,2.71,1.92,9.55,9.55,0,0,0,3.66.66,9.42,9.42,0,0,0,3.63-.66,7.19,7.19,0,0,0,2.7-1.92,8.64,8.64,0,0,0,1.69-3.08A13.3,13.3,0,0,0,432.77,151.78Z"/><path class="cls-2" d="M448,136.54a2,2,0,0,1,.57.16,1.9,1.9,0,0,1,.48.33,5.56,5.56,0,0,1,.52.57L464.06,156q-.08-.88-.13-1.71t0-1.56V136.5h6.26v30.6h-3.7a3.41,3.41,0,0,1-1.39-.25,3,3,0,0,1-1.09-.92l-14.43-18.23q.06.8.1,1.56t0,1.44v16.4h-6.26V136.5h3.74A6.06,6.06,0,0,1,448,136.54Z"/><rect class="cls-3" x="5" y="5" width="492" height="189.38" rx="6" ry="6"/><line class="cls-4" x1="173" y1="27.19" x2="173" y2="172.19"/><path class="cls-5" d="M36.19,213.87H42a2.61,2.61,0,0,1,1.55.43,2.36,2.36,0,0,1,.86,1.14l6.06,16.77q.41,1.1.83,2.39t.79,2.71q.3-1.42.7-2.71t.79-2.39l6-16.77A2.49,2.49,0,0,1,62,213.87h5.89L55.32,245.2H48.74Z"/><path class="cls-5" d="M90.63,213.87v5.59H77.77v7.31h9.85v5.38H77.77v7.46H90.63v5.59H70.46V213.87Z"/><path class="cls-5" d="M102,233.61V245.2H94.75V213.87h10.19a20.94,20.94,0,0,1,5.79.7,10.9,10.9,0,0,1,3.91,1.95,7.37,7.37,0,0,1,2.2,2.95,9.75,9.75,0,0,1,.69,3.7,10,10,0,0,1-.41,2.88,8.73,8.73,0,0,1-1.21,2.5,9.41,9.41,0,0,1-2,2.05,10.5,10.5,0,0,1-2.7,1.48,6.85,6.85,0,0,1,1.37.9,5.37,5.37,0,0,1,1.11,1.31l6.67,10.9H113.8a2.79,2.79,0,0,1-2.62-1.38l-5.2-9.09a2.2,2.2,0,0,0-.81-.86,2.7,2.7,0,0,0-1.3-.26Zm0-5h2.92a7.47,7.47,0,0,0,2.53-.38,4.57,4.57,0,0,0,1.71-1,4,4,0,0,0,1-1.56,6,6,0,0,0,.3-1.92,4,4,0,0,0-1.34-3.23,6.26,6.26,0,0,0-4.16-1.16H102Z"/><path class="cls-5" d="M131.3,245.2H124V213.87h7.31Z"/><path class="cls-5" d="M157.28,213.87v5.59H144.42v7.93h10.71V233H144.42V245.2h-7.31V213.87Z"/><path class="cls-5" d="M169,245.2H161.7V213.87H169Z"/><path class="cls-5" d="M195,213.87v5.59H182.13v7.31H192v5.38h-9.85v7.46H195v5.59H174.82V213.87Z"/><path class="cls-5" d="M227.54,229.53a16.42,16.42,0,0,1-1.17,6.27,14.66,14.66,0,0,1-3.3,5,15,15,0,0,1-5.13,3.27,18.14,18.14,0,0,1-6.65,1.17H199.11V213.87h12.17a18,18,0,0,1,6.65,1.18,15.2,15.2,0,0,1,5.13,3.27,14.56,14.56,0,0,1,3.3,5A16.37,16.37,0,0,1,227.54,229.53Zm-7.44,0a13.65,13.65,0,0,0-.6-4.19,9,9,0,0,0-1.73-3.17,7.52,7.52,0,0,0-2.76-2,9.39,9.39,0,0,0-3.72-.7h-4.86v20.15h4.86a9.39,9.39,0,0,0,3.72-.7,7.52,7.52,0,0,0,2.76-2,9,9,0,0,0,1.73-3.17A13.72,13.72,0,0,0,220.1,229.53Z"/><path class="cls-5" d="M270.24,229.53a16.83,16.83,0,0,1-1.17,6.32,14.94,14.94,0,0,1-8.43,8.47,18.71,18.71,0,0,1-13.32,0,14.95,14.95,0,0,1-8.46-8.47,17.63,17.63,0,0,1,0-12.64,15,15,0,0,1,3.31-5.07,15.31,15.31,0,0,1,5.15-3.38,17.51,17.51,0,0,1,6.67-1.23,17.31,17.31,0,0,1,6.65,1.24,15.36,15.36,0,0,1,5.13,3.39,15.12,15.12,0,0,1,3.3,5.07A16.78,16.78,0,0,1,270.24,229.53Zm-7.44,0a13.55,13.55,0,0,0-.6-4.18,8.87,8.87,0,0,0-1.73-3.15,7.47,7.47,0,0,0-2.76-2,9.52,9.52,0,0,0-3.72-.69,9.65,9.65,0,0,0-3.75.69,7.45,7.45,0,0,0-2.77,2,8.84,8.84,0,0,0-1.73,3.15,14.89,14.89,0,0,0,0,8.39,8.84,8.84,0,0,0,1.73,3.15,7.35,7.35,0,0,0,2.77,2,9.79,9.79,0,0,0,3.75.68,9.65,9.65,0,0,0,3.72-.68,7.37,7.37,0,0,0,2.76-2,8.87,8.87,0,0,0,1.73-3.15A13.62,13.62,0,0,0,262.8,229.53Z"/><path class="cls-5" d="M281,234.73V245.2h-7.27V213.87h11.05a18.22,18.22,0,0,1,5.69.79,10.91,10.91,0,0,1,3.91,2.16,8.43,8.43,0,0,1,2.27,3.25,11,11,0,0,1,.73,4,11.88,11.88,0,0,1-.75,4.3,8.63,8.63,0,0,1-2.3,3.35,10.83,10.83,0,0,1-3.92,2.18,18,18,0,0,1-5.62.78Zm0-5.48h3.78a4.61,4.61,0,0,0,5.33-5.14,5.66,5.66,0,0,0-.32-2,4,4,0,0,0-1-1.52,4.41,4.41,0,0,0-1.66-1,7.34,7.34,0,0,0-2.38-.34H281Z"/><path class="cls-5" d="M321.32,213.87v5.59H308.46v7.31h9.85v5.38h-9.85v7.46h12.86v5.59H301.15V213.87Z"/><path class="cls-5" d="M332.71,233.61V245.2h-7.27V213.87h10.19a20.94,20.94,0,0,1,5.79.7,10.9,10.9,0,0,1,3.91,1.95,7.37,7.37,0,0,1,2.2,2.95,9.75,9.75,0,0,1,.69,3.7,10,10,0,0,1-.41,2.88,8.73,8.73,0,0,1-1.21,2.5,9.41,9.41,0,0,1-2,2.05,10.5,10.5,0,0,1-2.7,1.48,6.85,6.85,0,0,1,1.37.9,5.37,5.37,0,0,1,1.11,1.31l6.67,10.9H344.5a2.79,2.79,0,0,1-2.62-1.38l-5.2-9.09a2.2,2.2,0,0,0-.81-.86,2.7,2.7,0,0,0-1.3-.26Zm0-5h2.92a7.47,7.47,0,0,0,2.53-.38,4.57,4.57,0,0,0,1.71-1,4,4,0,0,0,1-1.56,6,6,0,0,0,.3-1.92,4,4,0,0,0-1.34-3.23,6.26,6.26,0,0,0-4.16-1.16h-2.92Z"/><path class="cls-5" d="M383.2,245.2h-5.63a2.6,2.6,0,0,1-1.56-.44,2.27,2.27,0,0,1-.85-1.13l-1.85-5.46H361.39l-1.85,5.46a2.49,2.49,0,0,1-2.37,1.57H351.5l12.13-31.33h7.44Zm-20.12-12h8.56l-2.88-8.58-.66-1.92q-.38-1.11-.74-2.4-.34,1.31-.71,2.43t-.69,1.93Z"/><path class="cls-5" d="M405,213.87v5.76h-8.82V245.2H389V219.63h-8.82v-5.76Z"/><path class="cls-5" d="M437.68,229.53a16.83,16.83,0,0,1-1.17,6.32,14.94,14.94,0,0,1-8.43,8.47,18.71,18.71,0,0,1-13.32,0,14.95,14.95,0,0,1-8.46-8.47,17.63,17.63,0,0,1,0-12.64,15,15,0,0,1,3.31-5.07,15.31,15.31,0,0,1,5.15-3.38,17.51,17.51,0,0,1,6.67-1.23,17.31,17.31,0,0,1,6.65,1.24,15.36,15.36,0,0,1,5.13,3.39,15.12,15.12,0,0,1,3.3,5.07A16.78,16.78,0,0,1,437.68,229.53Zm-7.44,0a13.55,13.55,0,0,0-.6-4.18,8.87,8.87,0,0,0-1.73-3.15,7.47,7.47,0,0,0-2.76-2,9.52,9.52,0,0,0-3.72-.69,9.65,9.65,0,0,0-3.75.69,7.45,7.45,0,0,0-2.77,2,8.84,8.84,0,0,0-1.73,3.15,14.89,14.89,0,0,0,0,8.39,8.84,8.84,0,0,0,1.73,3.15,7.35,7.35,0,0,0,2.77,2,9.79,9.79,0,0,0,3.75.68,9.65,9.65,0,0,0,3.72-.68,7.37,7.37,0,0,0,2.76-2,8.87,8.87,0,0,0,1.73-3.15A13.62,13.62,0,0,0,430.24,229.53Z"/><path class="cls-5" d="M448.43,233.61V245.2h-7.27V213.87h10.19a20.94,20.94,0,0,1,5.79.7,10.9,10.9,0,0,1,3.91,1.95,7.37,7.37,0,0,1,2.2,2.95,9.75,9.75,0,0,1,.69,3.7,10,10,0,0,1-.41,2.88,8.73,8.73,0,0,1-1.21,2.5,9.41,9.41,0,0,1-2,2.05,10.5,10.5,0,0,1-2.7,1.48,6.85,6.85,0,0,1,1.37.9,5.37,5.37,0,0,1,1.11,1.31l6.67,10.9h-6.58a2.79,2.79,0,0,1-2.62-1.38l-5.2-9.09a2.2,2.2,0,0,0-.81-.86,2.7,2.7,0,0,0-1.3-.26Zm0-5h2.92a7.47,7.47,0,0,0,2.53-.38,4.57,4.57,0,0,0,1.71-1,4,4,0,0,0,1-1.56,6,6,0,0,0,.3-1.92,4,4,0,0,0-1.34-3.23,6.26,6.26,0,0,0-4.16-1.16h-2.92Z"/><path id="_Path_3" data-name="&lt;Path&gt;" class="cls-6" d="M90,149.23a11.37,11.37,0,0,0-10.1,6.32l-.25.48-.51-.16a20.59,20.59,0,0,1-8.64-5,17.82,17.82,0,0,1-5.17-8.42A21.08,21.08,0,0,1,70.41,121a.69.69,0,0,1,.14-.3l.15-.16a4.81,4.81,0,0,0-.11-6.66,4.78,4.78,0,0,0-6.76,0,19.38,19.38,0,0,1-9.25,5.42C48,120.86,43,120.75,41.91,119a23.1,23.1,0,0,1-10.5-8,21,21,0,0,1,2.27-26.77,24.09,24.09,0,0,1,8-5.16,21.2,21.2,0,0,1,12.88-.46,20.8,20.8,0,0,1,8.33,4.7,4.81,4.81,0,0,1,.53.69,3.41,3.41,0,0,0,.4.51,4.77,4.77,0,0,0,6.75,0,4.65,4.65,0,0,0,1.3-3.59,4.73,4.73,0,0,0-1.3-3.65,3,3,0,0,0-.35-.28l.1-.27-.16.23a3.09,3.09,0,0,1-.47-.37,21,21,0,0,1-4.29-20.39,4.78,4.78,0,0,0-9.08-3,30.56,30.56,0,0,0-.84,15.14l.17.92-.92-.19A30.47,30.47,0,0,0,38.55,70c-3.7,1.27-7.33,3.57-11.44,7.25a30.78,30.78,0,0,0-3.52,39.2,33.46,33.46,0,0,0,14.9,11.46,30.86,30.86,0,0,0,10.38,1.8A27.17,27.17,0,0,0,54,129l1.6-.31-.2.94a30,30,0,0,0,.7,15.47,27,27,0,0,0,7.59,12.54,30.68,30.68,0,0,0,16.08,8.43l.28.05.15.25A11.31,11.31,0,0,0,90,172.17a11.47,11.47,0,1,0,0-22.94Z"/><path id="_Path_4" data-name="&lt;Path&gt;" class="cls-6" d="M151.26,81.47A33.45,33.45,0,0,0,136.35,70a30.26,30.26,0,0,0-16.25-.94l-.92.19.17-.92a29.6,29.6,0,0,0-.77-14.8A27.1,27.1,0,0,0,111,41a30.62,30.62,0,0,0-16.59-8.5l-.26,0L94,32.23a11.25,11.25,0,0,0-9.25-5.05A11.48,11.48,0,1,0,95.22,43.24l.24-.54.55.2a20.63,20.63,0,0,1,8.22,4.85,18,18,0,0,1,5.18,8.43,21,21,0,0,1-4.25,20.32,4.5,4.5,0,0,1-.54.42,3,3,0,0,0-.4.3,4.68,4.68,0,0,0-1.29,3.59A4.72,4.72,0,0,0,111,84.46a4.09,4.09,0,0,0,.38-.49,5.63,5.63,0,0,1,.49-.67,20.93,20.93,0,0,1,8.38-4.74,21.23,21.23,0,0,1,12.68.38,23.12,23.12,0,0,1,10.5,8,21,21,0,0,1-2.27,26.77,24,24,0,0,1-8,5.16,21.36,21.36,0,0,1-12.88.46,21.1,21.1,0,0,1-9.25-5.42l-9.28-9.27.11-.36a11.19,11.19,0,0,0,.7-3.4,12.08,12.08,0,1,0-7.84,10.73l.38-.12.27.29,8.51,8.51a1.42,1.42,0,0,1,.28.56c0,.09,0,.13,0,.15a21,21,0,0,1,5.12,21.5,4.68,4.68,0,0,0,.28,3.64,4.74,4.74,0,0,0,2.78,2.38,4.6,4.6,0,0,0,1.48.24,4.76,4.76,0,0,0,4.54-3.3,30.79,30.79,0,0,0,.78-15.85l-.2-1,1.14.23a29.84,29.84,0,0,0,5.91.81,30.32,30.32,0,0,0,10.29-1.8c3.68-1.25,7.32-3.55,11.45-7.25A30.76,30.76,0,0,0,151.26,81.47Z"/></g></g></svg>