<svg xmlns:xlink="http://www.w3.org/1999/xlink" width="16" height="16" fill="#737373" xmlns="http://www.w3.org/2000/svg" class="" viewBox="0 0 16 16" style="enable-background: new 0 0 16 16;">
                                                <path d="M8.27,2.9L8.27,2.9L8.27,2.9 M8,2.32c-0.17,0-0.33,0.1-0.4,0.25L7.01,3.76L5.69,3.95
                    C5.52,3.98,5.38,4.1,5.33,4.26C5.28,4.42,5.32,4.6,5.44,4.72L6.4,5.65L6.17,6.96C6.14,7.13,6.21,7.3,6.35,7.4
                    c0.08,0.06,0.17,0.09,0.26,0.09c0.07,0,0.14-0.02,0.21-0.05L8,6.81l1.18,0.62c0.07,0.03,0.14,0.05,0.21,0.05
                    c0.09,0,0.19-0.03,0.26-0.09c0.14-0.1,0.21-0.27,0.18-0.44L9.6,5.65l0.95-0.93c0.12-0.12,0.17-0.3,0.11-0.46
                    s-0.19-0.28-0.36-0.31L8.99,3.76L8.4,2.57C8.33,2.42,8.17,2.32,8,2.32L8,2.32z M7.21,6.21l0.11-0.64 c0.03-0.15-0.02-0.29-0.13-0.4L6.73,4.71l0.65-0.09C7.52,4.6,7.65,4.51,7.71,4.37L8,3.79l0.29,0.59C8.35,4.51,8.48,4.6,8.63,4.62 l0.65,0.09L8.81,5.17c-0.11,0.1-0.15,0.25-0.13,0.4l0.11,0.64l-0.58-0.3C8.14,5.87,8.07,5.86,8,5.86c-0.07,0-0.14,0.02-0.21,0.05 L7.21,6.21L7.21,6.21z" fill="#737373"></path>
                                                <path d="M12.53,0.49H3.47c-0.25,0-0.45,0.2-0.45,0.45v0.72c-0.26-0.15-0.57-0.24-0.9-0.24c-0.99,0-1.8,0.81-1.8,1.8
                    v1.53c0,0.6,0.3,1.16,0.8,1.5l2.1,1.4c0.01,0.01,0.02,0.01,0.03,0.02C3.6,8.57,4.32,9.32,5.34,9.8c0.67,0.31,1.13,0.87,1.27,1.52 H6.2c-0.74,0-1.35,0.61-1.35,1.35v0.53c-0.52,0.19-0.9,0.69-0.9,1.27v0.93c0,0.25,0.2,0.45,0.45,0.45h7.2 c0.25,0,0.45-0.2,0.45-0.45v-0.93c0-0.59-0.38-1.09-0.9-1.27v-0.53c0-0.74-0.61-1.35-1.35-1.35H9.37 c0.09-0.63,0.47-1.18,1.02-1.5c1.08-0.61,1.92-1.25,2.32-2.14c0.05-0.02-0.1,0.08,2.16-1.43c0.5-0.33,0.8-0.89,0.8-1.5V3.22 c0-0.99-0.81-1.8-1.8-1.8c-0.33,0-0.63,0.09-0.9,0.24V0.94C12.98,0.69,12.78,0.49,12.53,0.49L12.53,0.49z M7.52,11.32 c-0.14-1-0.81-1.87-1.8-2.34c-1.16-0.54-1.8-1.47-1.8-2.61V1.39h8.16v4.98c0,1.08-0.56,1.78-2.13,2.67 c-0.84,0.47-1.39,1.33-1.49,2.28H7.52L7.52,11.32z M12.98,6.43c0-0.02,0-0.04,0-0.06V3.22c0-0.5,0.4-0.9,0.9-0.9 c0.5,0,0.9,0.4,0.9,0.9v1.53c0,0.3-0.15,0.58-0.4,0.75L12.98,6.43L12.98,6.43z M3.02,6.43L1.62,5.5c-0.25-0.17-0.4-0.45-0.4-0.75 V3.22c0-0.5,0.4-0.9,0.9-0.9c0.5,0,0.9,0.4,0.9,0.9v3.15C3.02,6.39,3.02,6.41,3.02,6.43L3.02,6.43z M5.75,13.12v-0.45 c0-0.25,0.2-0.45,0.45-0.45h3.6c0.25,0,0.45,0.2,0.45,0.45v0.45H8.9c-0.25,0-0.45,0.2-0.45,0.45s0.2,0.45,0.45,0.45h1.8 c0.25,0,0.45,0.2,0.45,0.45v0.48h-6.3v-0.48c0-0.25,0.2-0.45,0.45-0.45h1.8c0.25,0,0.45-0.2,0.45-0.45s-0.2-0.45-0.45-0.45H5.75 L5.75,13.12z" fill="#737373"></path>
                                            </svg>