<svg xmlns:xlink="http://www.w3.org/1999/xlink" width="20" height="24" fill="#737373" xmlns="http://www.w3.org/2000/svg" class="pb-1" viewBox="0 0 16 16">
                                        <path d="M14.06,11.49c-0.25-0.45-0.55-0.81-0.82-1.12c-0.29-0.35-0.54-0.65-0.66-0.98c-0.27-0.74-0.3-1.32-0.34-2.01 c-0.04-0.73-0.09-1.56-0.46-2.65c-0.53-1.58-1.71-2.45-3.42-2.56V1.31C8.37,1.1,8.2,0.93,8,0.93S7.62,1.1,7.62,1.31v0.86 C5.91,2.28,4.73,3.15,4.2,4.73C3.83,5.83,3.78,6.65,3.74,7.38c-0.04,0.68-0.07,1.27-0.34,2c-0.12,0.33-0.36,0.63-0.63,0.98 c-0.26,0.32-0.55,0.69-0.79,1.14c-0.2,0.38-0.19,0.83,0.03,1.21c0.23,0.39,0.64,0.62,1.08,0.62h2.42c0.06,1.2,1.15,2.16,2.48,2.16 c1.33,0,2.42-0.96,2.48-2.16h2.48c0.45,0,0.86-0.24,1.09-0.63C14.27,12.32,14.27,11.87,14.06,11.49z M8,14.74 c-0.92,0-1.66-0.62-1.73-1.41h3.46C9.66,14.11,8.91,14.74,8,14.74z M13.4,12.32c-0.09,0.16-0.26,0.26-0.44,0.26H3.1 c-0.18,0-0.34-0.09-0.44-0.25c-0.04-0.07-0.13-0.26-0.02-0.47c0.21-0.4,0.47-0.72,0.72-1.03c0.3-0.38,0.59-0.74,0.75-1.19 c0.3-0.84,0.34-1.51,0.38-2.22c0.04-0.72,0.08-1.46,0.42-2.45C5.37,3.59,6.41,2.89,8,2.89s2.62,0.7,3.08,2.08 c0.34,1,0.38,1.74,0.42,2.45c0.04,0.71,0.08,1.38,0.38,2.22c0.16,0.45,0.47,0.82,0.79,1.2c0.26,0.31,0.52,0.62,0.74,1.01 C13.52,12.06,13.44,12.25,13.4,12.32z" fill="#737373"></path>
                                    </svg>