<svg xmlns:xlink="http://www.w3.org/1999/xlink" width="20" height="24" fill="#737373" xmlns="http://www.w3.org/2000/svg" class="pb-1" viewBox="0 0 16 16">
                                        <path class="st0" d="M13.67,0.85H2.33c-0.34,0-0.62,0.28-0.62,0.62v13.31c0,0.25,0.15,0.48,0.39,0.58c0.24,0.1,0.5,0.04,0.68-0.14 l1.28-1.32l1.52,1.58c0.23,0.24,0.66,0.24,0.9,0L8,13.89l1.52,1.58c0.12,0.12,0.28,0.19,0.45,0.19c0.17,0,0.33-0.07,0.45-0.19 l1.52-1.58l1.28,1.32c0.18,0.18,0.44,0.24,0.68,0.14c0.24-0.1,0.39-0.32,0.39-0.58V1.47C14.29,1.13,14.01,0.85,13.67,0.85z M13.54,14.47l-1.15-1.19c-0.23-0.24-0.66-0.24-0.9,0l-1.52,1.58l-1.52-1.58C8.33,13.16,8.17,13.09,8,13.09s-0.33,0.07-0.45,0.19 l-1.52,1.58L4.5,13.28c-0.24-0.24-0.66-0.24-0.9,0l-1.15,1.19V1.6h11.08V14.47z" fill="#737373"></path>
                                        <path class="st0" d="M3.98,5.22h3.18c0.28,0,0.5-0.22,0.5-0.5s-0.22-0.5-0.5-0.5H3.98c-0.28,0-0.5,0.22-0.5,0.5 S3.71,5.22,3.98,5.22z" fill="#737373"></path>
                                        <path class="st0" d="M3.5,7.77c0,0.28,0.22,0.5,0.5,0.5H12c0.28,0,0.5-0.22,0.5-0.5s-0.22-0.5-0.5-0.5H4 C3.72,7.27,3.5,7.5,3.5,7.77z" fill="#737373"></path>
                                        <path class="st0" d="M12,9.62H4c-0.28,0-0.5,0.22-0.5,0.5s0.22,0.5,0.5,0.5H12c0.28,0,0.5-0.22,0.5-0.5S12.28,9.62,12,9.62z" fill="#737373"></path>
                                    </svg>