<svg xmlns:xlink="http://www.w3.org/1999/xlink" width="20" height="24" fill="#737373" xmlns="http://www.w3.org/2000/svg" class="pb-1" viewBox="0 0 16 16">
                                        <path class="st0" d="M8,8.13c-2.18,0-3.96-1.77-3.96-3.96S5.82,0.21,8,0.21s3.96,1.77,3.96,3.96S10.18,8.13,8,8.13z M8,0.96 c-1.77,0-3.21,1.44-3.21,3.21S6.23,7.38,8,7.38c1.77,0,3.21-1.44,3.21-3.21S9.77,0.96,8,0.96z" fill="#737373"></path>
                                        <path class="st0" d="M13.57,14.51H2.43c-0.77,0-1.4-0.63-1.4-1.39v-0.49c0-2.4,1.95-4.35,4.35-4.35L8,8.82l2.53-0.53 c0,0,0.01,0,0.01,0c2.47,0,4.42,1.95,4.42,4.35v0.49C14.96,13.89,14.34,14.51,13.57,14.51z M5.31,9.02 c-1.91,0.01-3.53,1.63-3.53,3.61v0.49c0,0.36,0.29,0.64,0.65,0.64h11.14c0.36,0,0.64-0.29,0.64-0.64v-0.49 c0-1.99-1.62-3.61-3.6-3.61L8.08,9.57c-0.05,0.01-0.1,0.01-0.15,0L5.31,9.02z" fill="#737373"></path>
                                    </svg>