<svg xmlns:xlink="http://www.w3.org/1999/xlink" width="16" height="16" fill="#737373" xmlns="http://www.w3.org/2000/svg" class="" viewBox="0 0 16 16">
                                                    <path d="M12.59,14.97H2.5c-1.17,0-2.13-0.95-2.13-2.13V4.87c0-1.17,0.95-2.13,2.13-2.13h10.1 c1.17,0,2.13,0.95,2.13,2.13V5.8h-0.75V4.87c0-0.76-0.62-1.38-1.38-1.38H2.5c-0.76,0-1.38,0.62-1.38,1.38v7.98 c0,0.76,0.62,1.38,1.38,1.38h10.09c0.76,0,1.38-0.62,1.38-1.38V10.3h0.75v2.55C14.71,14.02,13.76,14.97,12.59,14.97z" fill="#737373"></path>
                                                    <path d="M12.92,3.5H2.17V3.01c0-1.02,0.83-1.84,1.85-1.84h7.06c1.02,0,1.84,0.83,1.84,1.84V3.5z M2.96,2.75h9.19 c-0.12-0.48-0.55-0.83-1.06-0.83H4.02C3.51,1.92,3.08,2.27,2.96,2.75z" fill="#737373"></path>
                                                    <path d="M15,10.36h-2.94c-1.24,0-2.24-1.01-2.24-2.25V7.84c0-1.24,1.01-2.24,2.24-2.24H15c0.42,0,0.75,0.34,0.75,0.75 V9.6c0.01,0.18-0.06,0.38-0.2,0.52C15.41,10.27,15.21,10.36,15,10.36z M12.06,6.35c-0.82,0-1.49,0.67-1.49,1.49v0.27 c0,0.82,0.67,1.5,1.49,1.5H15c0.01,0,0.01,0,0.01,0L15,6.35L12.06,6.35z" fill="#737373"></path>
                                                </svg>